<svg xmlns="http://www.w3.org/2000/svg" width="250" height="414" fill="none" viewBox="0 0 250 414">
  <g clip-path="url(#a)">
    <path fill="#26324F" d="m143.057 275.267.702-.121c-.234.041-.458.081-.702.121Zm-13.748 82.779a.501.501 0 0 1 .489-.523l.407-.021a91.753 91.753 0 0 0 10.175-17.791c9.708-22.541 7.734-43.311 6.014-53.485a182.38 182.38 0 0 1-42.26.091 182.806 182.806 0 0 1-20.056-3.442c-3.785 18.959-9.575 51.03-10.41 73.782h.753a.51.51 0 0 1 .936.383l-.081.261a.511.511 0 0 1-.489.362h.01-1.17a99.85 99.85 0 0 0-.06 3.452c.529.02 1.068.05 1.597.071l9.596-28.368 1.577 28.79a795.08 795.08 0 0 0 36.236.312c1.424-.02 2.839-.05 4.253-.08a100.605 100.605 0 0 0 2.687-3.422c-.112-.09-.204-.221-.204-.372Zm-41.13-72.786c.02-.282.275-.463.55-.463.284.02.488.272.467.543l-.346 4.016a.507.507 0 0 1-.508.462H88.3a.507.507 0 0 1-.468-.543l.346-4.015Zm-.702 8.02c.02-.282.285-.463.55-.463.284.02.488.272.467.544l-.346 4.015a.508.508 0 0 1-.508.463h-.041a.508.508 0 0 1-.468-.544l.346-4.015Zm-.703 8.02a.51.51 0 0 1 .55-.462c.285.02.489.271.468.543l-.346 4.015a.508.508 0 0 1-.509.463h-.04a.508.508 0 0 1-.468-.543l.346-4.016Zm-.691 8.021a.51.51 0 0 1 1.017.08l-.346 4.015a.508.508 0 0 1-.509.463h-.04a.507.507 0 0 1-.468-.543l.346-4.015Zm-8.436 39.99-1.14 3.864a.5.5 0 0 1-.488.363s-.092 0-.143-.021a.495.495 0 0 1-.346-.623l1.14-3.865a.504.504 0 0 1 .63-.342.496.496 0 0 1 .347.624Zm2.27-7.728-1.14 3.864a.5.5 0 0 1-.489.362s-.092 0-.142-.02a.495.495 0 0 1-.347-.624l1.14-3.864a.51.51 0 0 1 .631-.342c.275.08.428.352.346.624Zm2.278-7.729-1.14 3.865a.5.5 0 0 1-.488.362s-.091 0-.142-.02a.496.496 0 0 1-.346-.624l1.14-3.864a.503.503 0 0 1 .63-.343.496.496 0 0 1 .346.624Zm2.27-7.728-1.14 3.864a.5.5 0 0 1-.489.362s-.091 0-.142-.02a.495.495 0 0 1-.346-.624l1.14-3.864a.503.503 0 0 1 .63-.342.496.496 0 0 1 .347.624Zm1.15-3.874a.5.5 0 0 1-.489.362h-.01s-.092 0-.143-.02a.504.504 0 0 1-.346-.624l.774-2.617a.526.526 0 0 1 .529-.362c.244.02.438.201.468.433l.183 1.288a.495.495 0 0 1-.437.564.585.585 0 0 1-.234-.021l-.295.997Zm1.058 6.581-.56-3.985a.495.495 0 0 1 .438-.564c.274-.03.539.151.57.433l.56 3.985a.495.495 0 0 1-.438.564h-.072a.495.495 0 0 1-.498-.433Zm1.109 7.98-.56-3.985a.495.495 0 0 1 .438-.564c.275-.04.54.151.57.433l.56 3.985a.495.495 0 0 1-.438.564h-.071a.495.495 0 0 1-.5-.433Zm1.12 7.97-.56-3.985a.495.495 0 0 1 .437-.564c.275-.04.54.151.57.433l.56 3.985a.494.494 0 0 1-.438.563H89.4a.494.494 0 0 1-.499-.432Zm1.108 7.97-.56-3.985a.495.495 0 0 1 .438-.564c.275-.04.54.151.57.433l.56 3.985a.494.494 0 0 1-.438.563h-.07a.495.495 0 0 1-.5-.432Zm4.61 5.605s-.03-.01-.05-.01c-2.646-.272-3.38-.564-3.705-.755a.492.492 0 0 1-.234-.362l-.071-.493a.495.495 0 0 1 .438-.564c.274-.03.539.151.57.433l.03.221c.346.131 1.17.322 3.073.523a.517.517 0 0 1 .458.554.506.506 0 0 1-.509.453Zm8.141.443h-.021a145.3 145.3 0 0 1-4.08-.161.493.493 0 0 1-.478-.524c.02-.271.234-.523.529-.473 1.241.061 2.595.111 4.06.151.285 0 .498.242.498.513a.506.506 0 0 1-.508.494Zm8.14.09h-.549c-1.221 0-2.402 0-3.531-.02a.495.495 0 0 1-.499-.513c0-.282.204-.493.519-.493 1.13 0 2.31.02 3.521.02h.539a.5.5 0 0 1 .509.503.5.5 0 0 1-.509.503Zm8.131-.1c-1.384.03-2.738.05-4.071.07h-.01a.505.505 0 0 1-.509-.493.52.52 0 0 1 .499-.513 603.48 603.48 0 0 0 4.06-.071c.255.03.509.212.519.493a.509.509 0 0 1-.498.514h.01Zm21.002-51.312a.512.512 0 0 1 .682-.231 24.392 24.392 0 0 0 3.704 1.429c.275.08.428.352.346.624a.5.5 0 0 1-.488.362s-.092 0-.143-.02a23.603 23.603 0 0 1-3.866-1.49.5.5 0 0 1-.235-.674Zm-6.431-4.88a.516.516 0 0 1 .723.02 22.81 22.81 0 0 0 2.981 2.596.506.506 0 0 1 .112.704.516.516 0 0 1-.712.101 23.497 23.497 0 0 1-3.124-2.707.504.504 0 0 1 .02-.714Zm-6.42 55.93c-1.364.06-2.728.111-4.071.151h-.02.01a.504.504 0 0 1-.509-.483c0-.282.214-.513.489-.523 1.343-.041 2.696-.091 4.06-.151.325 0 .519.201.529.483a.502.502 0 0 1-.488.523Zm.987-65.5c-.051 0-.092.02-.143.02a.52.52 0 0 1-.488-.373 24.878 24.878 0 0 1-.835-4.025.5.5 0 0 1 .448-.553.505.505 0 0 1 .56.442c.071.675.285 2.073.804 3.865a.51.51 0 0 1-.346.624Zm1.058 2.827c.254-.12.559 0 .671.252a24.25 24.25 0 0 0 1.944 3.441.498.498 0 0 1-.427.775.533.533 0 0 1-.428-.221 25.654 25.654 0 0 1-2.015-3.583.495.495 0 0 1 .255-.664Zm32.735 5.252a255.706 255.706 0 0 0-3.531-17.006c1.485 6.47 3.286 15.668 4.874 27.572-.814-7.507-1.333-10.566-1.333-10.566h-.01Zm-14.938-26.536c.112-.02.224-.04.346-.06-.112.02-.224.04-.346.06ZM167 360.047l-34.181 1.66a790.216 790.216 0 0 0 34.181-1.66Z"/>
    <path fill="#152035" d="M140.126 275.72a184.6 184.6 0 0 0 2.931-.443c-.987.161-1.964.302-2.931.443Zm23.17 35.954c.967 8.966 2.34 24.272 3.704 48.373-.509-19.281-1.974-35.412-3.704-48.373Zm-15.925-37.172c2.89-.554 5.576-1.158 8.029-1.772a155.417 155.417 0 0 1-8.029 1.772Zm-14.551 87.207c-1.985.05-3.979.101-5.994.141-.04.05-.081.111-.122.161l6.116-.292v-.01Zm10.939-86.553Z"/>
    <path fill="#152035" d="M155.399 272.73a264.374 264.374 0 0 1 3.033 11.372c-1.73-7.538-3.033-11.372-3.033-11.372Z"/>
    <path fill="#152035" d="M163.296 311.674c-1.587-11.904-3.388-21.112-4.874-27.572a264.448 264.448 0 0 0-3.032-11.372 147.328 147.328 0 0 1-8.029 1.772c-.112.02-.224.04-.346.06a187.21 187.21 0 0 1-3.266.584l-.702.12a184.6 184.6 0 0 1-2.931.443c-1.242.181-2.473.332-3.694.473a143.062 143.062 0 0 1-29.784.312 141.799 141.799 0 0 1-20.545-3.482c-.02.081-.03.151-.051.232-.356 1.7-.784 3.723-1.242 5.997.204.051.397.101.6.151a.5.5 0 0 1 .377.604.51.51 0 0 1-.498.382h-.122c-.194-.05-.377-.09-.57-.141-.173.846-.346 1.721-.53 2.637a180.862 180.862 0 0 0 20.057 3.442 182.326 182.326 0 0 0 42.26-.091c1.72 10.174 3.694 30.944-6.014 53.485a91.753 91.753 0 0 1-10.176 17.791l1.221-.05a.509.509 0 0 1 .53.483.501.501 0 0 1-.489.523l-1.638.071a.489.489 0 0 1-.305-.111 89.398 89.398 0 0 1-2.687 3.422c2.005-.041 4.009-.091 5.994-.141l34.18-1.661c-1.363-24.091-2.737-39.406-3.704-48.373l.01.01Zm-70.02-29.585v-.02h-.1a201.13 201.13 0 0 1-4-.795.496.496 0 0 1-.387-.594.507.507 0 0 1 .6-.382c1.303.282 2.626.543 3.98.795a.502.502 0 0 1-.092.996Zm8.019 1.298h-.071a158.03 158.03 0 0 1-4.04-.614.494.494 0 0 1-.417-.573.505.505 0 0 1 .58-.413c1.313.212 2.656.423 4.009.604.275.04.469.292.438.564a.51.51 0 0 1-.499.432Zm8.07.916h.01s-.031.01-.051.01a147.282 147.282 0 0 1-4.06-.423.507.507 0 0 1-.448-.553c.031-.272.295-.463.56-.443 1.353.161 2.707.292 4.04.413a.498.498 0 0 1-.051.996Zm8.14.563-.02-.01c-1.343-.06-2.707-.13-4.08-.221a.5.5 0 0 1-.469-.533.495.495 0 0 1 .54-.463c1.363.09 2.717.171 4.05.221a.503.503 0 0 1-.021 1.006Zm8.131.161h-.702c-1.109 0-2.239-.01-3.379-.03a.494.494 0 0 1-.498-.513c0-.282.264-.513.519-.493 1.18.02 2.34.04 3.49.03h.57c.285 0 .509.222.509.503a.5.5 0 0 1-.509.503Zm8.171-.221c-1.343.071-2.697.121-4.081.161h-.02a.505.505 0 0 1-.509-.493c0-.282.214-.513.499-.513 1.374-.04 2.727-.091 4.06-.151.315-.04.519.201.529.473a.499.499 0 0 1-.478.523Zm8.13-.594c-1.333.131-2.686.242-4.07.343h-.03a.508.508 0 0 1-.509-.463.508.508 0 0 1 .468-.544 155.7 155.7 0 0 0 4.04-.342.517.517 0 0 1 .559.453.501.501 0 0 1-.458.553Zm-2.33 73.873-4.07.191h-.021a.503.503 0 0 1-.02-1.006l4.07-.191c.285-.04.519.201.53.483a.501.501 0 0 1-.489.523Zm6.39-74.305h-.061a.521.521 0 0 1-.508-.443.515.515 0 0 1 .447-.564c1.374-.161 2.717-.342 4.02-.523.275-.03.539.151.58.423a.509.509 0 0 1-.428.573c-1.312.192-2.666.363-4.05.534Zm1.751 73.903-4.071.201h-.02a.488.488 0 0 1-.509-.473.5.5 0 0 1 .479-.523l4.07-.202a.483.483 0 0 1 .529.473.5.5 0 0 1-.478.524Zm.722-48.001a.513.513 0 0 1 .662-.282 15.11 15.11 0 0 0 3.795.956c.275.03.478.282.448.554a.513.513 0 0 1-.509.442h.02s-.04.01-.061.01a15.906 15.906 0 0 1-4.07-1.026.5.5 0 0 1-.285-.654Zm7.418 47.578-4.07.221h-.031a.509.509 0 0 1-.508-.473.515.515 0 0 1 .478-.533l4.07-.221c.295-.031.519.201.54.473a.508.508 0 0 1-.479.533Zm1.059-45.988a.5.5 0 0 1-.072-.996 14.578 14.578 0 0 0 3.755-1.127c.255-.121.56 0 .672.251a.494.494 0 0 1-.255.664 15.564 15.564 0 0 1-4.019 1.208h-.081Zm7.082 45.535s-1.506.091-4.07.232h-.031a.518.518 0 0 1-.509-.473.509.509 0 0 1 .479-.534c2.564-.141 4.07-.231 4.07-.231a.49.49 0 0 1 .539.473.5.5 0 0 1-.478.533Zm-88.865 4.379 5.403.221c-1.81-.06-3.612-.141-5.403-.221Z"/>
    <path fill="#152035" d="m80.567 361.405 4.193-28.589-9.596 28.368c1.791.081 3.592.161 5.403.221Z"/>
    <path fill="#384A6D" d="M86.896 305.859h.04a.508.508 0 0 0 .51-.463l.346-4.015a.51.51 0 0 0-1.018-.081l-.346 4.015a.508.508 0 0 0 .468.544Zm-.691 8.019h.04a.508.508 0 0 0 .51-.463l.345-4.015a.51.51 0 0 0-1.018-.08l-.345 4.015a.507.507 0 0 0 .468.543Zm1.393-16.04h.041a.508.508 0 0 0 .509-.463l.346-4.015a.509.509 0 0 0-.468-.544c-.265 0-.53.182-.55.463l-.346 4.015a.508.508 0 0 0 .468.544Zm.702-8.02h.041a.508.508 0 0 0 .509-.463l.346-4.015a.508.508 0 0 0-.468-.543c-.275 0-.53.181-.55.463l-.346 4.015a.507.507 0 0 0 .469.543Zm-1.719 30.894-.183-1.289a.507.507 0 0 0-.468-.432.526.526 0 0 0-.53.362l-.773 2.616a.503.503 0 0 0 .489.644h.01a.5.5 0 0 0 .489-.362l.295-.996a.6.6 0 0 0 .234.02.494.494 0 0 0 .437-.563Zm-2.462 4.79a.504.504 0 0 0-.631.342l-1.14 3.864a.495.495 0 0 0 .346.624c.05.02.142.02.142.02a.5.5 0 0 0 .489-.362l1.14-3.864a.496.496 0 0 0-.346-.624Zm3.561 3.2-.56-3.985c-.03-.282-.295-.463-.57-.432a.494.494 0 0 0-.437.563l.56 3.985c.03.252.244.433.498.433h.071a.495.495 0 0 0 .438-.564Zm1.11 7.979-.56-3.985a.498.498 0 0 0-.57-.433.495.495 0 0 0-.438.564l.56 3.985c.03.251.244.432.499.432h.07a.494.494 0 0 0 .438-.563ZM77.3 348.686a.502.502 0 0 0-.63.342l-1.14 3.864a.496.496 0 0 0 .346.624c.05.02.142.02.142.02a.5.5 0 0 0 .489-.362l1.14-3.864a.495.495 0 0 0-.347-.624Zm12.608-4.034-.56-3.985a.498.498 0 0 0-.57-.433.494.494 0 0 0-.437.563l.56 3.985c.03.252.244.433.499.433h.07a.494.494 0 0 0 .438-.563Zm-8.058-11.421a.502.502 0 0 0-.632.342l-1.14 3.864a.496.496 0 0 0 .346.624c.051.02.143.02.143.02a.5.5 0 0 0 .488-.362l1.14-3.864a.495.495 0 0 0-.346-.624Zm-2.28 7.727a.511.511 0 0 0-.631.342l-1.14 3.865a.496.496 0 0 0 .346.624c.051.02.143.02.143.02a.5.5 0 0 0 .488-.363l1.14-3.864a.496.496 0 0 0-.346-.624Zm-4.782 16.706a.512.512 0 0 0 .488-.363l.081-.261a.51.51 0 0 0-.936-.383h-.753l-.03 1.007h1.16-.01Zm44.223.119c-1.374.03-2.737.051-4.06.071a.514.514 0 0 0-.499.513c0 .282.234.493.509.493 1.333-.02 2.686-.04 4.07-.07a.509.509 0 0 0 .499-.514c0-.281-.265-.463-.519-.493Zm8.13-.262c-1.363.061-2.717.111-4.06.151a.514.514 0 0 0-.488.524c.01.271.234.483.509.483h.01c1.343-.041 2.706-.091 4.07-.151a.5.5 0 0 0 .488-.523c0-.282-.203-.484-.529-.484Zm-32.47-.17c-1.903-.202-2.727-.393-3.073-.524l-.03-.221c-.031-.282-.296-.463-.57-.433a.495.495 0 0 0-.438.564l.071.493c.02.151.102.282.234.362.326.191 1.059.483 3.704.755h.051a.49.49 0 0 0 .509-.443.516.516 0 0 0-.458-.553Zm-3.653-4.729-.56-3.985a.498.498 0 0 0-.57-.432.494.494 0 0 0-.437.563l.56 3.985c.03.252.244.433.498.433h.071a.495.495 0 0 0 .438-.564Zm19.883 5.261h-.54c-1.211 0-2.391-.01-3.52-.02-.316 0-.519.212-.519.493a.494.494 0 0 0 .498.514c1.13.02 2.31.02 3.531.02h.55a.502.502 0 0 0 .509-.503.502.502 0 0 0-.509-.504Zm-8.131-.089a187.48 187.48 0 0 1-4.06-.151c-.295-.05-.509.201-.529.473a.492.492 0 0 0 .478.523c1.242.071 2.605.121 4.081.161h.02a.505.505 0 0 0 .509-.493.508.508 0 0 0-.499-.513Z"/>
    <path fill="#26324F" d="M129.309 358.045c0 .161.092.292.203.373.235-.312.458-.604.692-.916l-.407.02a.5.5 0 0 0-.488.523Zm21.97-1.036c.01.262.244.473.508.473h.031l4.07-.221a.508.508 0 0 0 .479-.533c-.021-.272-.245-.504-.54-.473l-4.07.221a.514.514 0 0 0-.478.533Zm8.14-.442a.517.517 0 0 0 .509.473h.031c2.564-.141 4.07-.232 4.07-.232a.5.5 0 0 0 .478-.533.49.49 0 0 0-.539-.473s-1.506.091-4.07.232a.508.508 0 0 0-.479.533Zm-23.903 1.709h.02l4.071-.191a.5.5 0 0 0 .488-.523c-.01-.282-.244-.524-.529-.483l-4.07.191a.503.503 0 0 0 .02 1.006Z"/>
    <path fill="#26324F" d="m129.817 358.529 1.639-.07a.501.501 0 0 0 .488-.524.508.508 0 0 0-.529-.483l-1.221.051c-.234.312-.458.604-.692.915a.505.505 0 0 0 .305.111h.01Zm13.84-.635.02-.01 4.07-.202a.5.5 0 0 0 .479-.523.484.484 0 0 0-.53-.473l-4.07.202a.504.504 0 0 0 .031 1.006Zm13.29-46.622h.081a15.525 15.525 0 0 0 4.019-1.208.494.494 0 0 0 .255-.664.505.505 0 0 0-.672-.251c-1.2.543-2.462.926-3.755 1.127a.501.501 0 0 0 .072.996Zm-8.477-1.59a.5.5 0 0 0 .285.654c1.313.524 2.676.866 4.071 1.027h.061-.021a.531.531 0 0 0 .509-.453.506.506 0 0 0-.448-.553 15.11 15.11 0 0 1-3.795-.956.512.512 0 0 0-.662.281Z"/>
    <path fill="#384A6D" d="M140.268 308.152a23.52 23.52 0 0 0 3.867 1.489.5.5 0 0 0 .142.02.5.5 0 0 0 .489-.362.497.497 0 0 0-.346-.624 24.144 24.144 0 0 1-3.704-1.429.511.511 0 0 0-.682.232.501.501 0 0 0 .234.674Zm-3.561-2.132a.515.515 0 0 0 .712-.101.507.507 0 0 0-.111-.704 22.76 22.76 0 0 1-2.982-2.597.517.517 0 0 0-.722-.02.504.504 0 0 0-.021.715 23.497 23.497 0 0 0 3.124 2.707Zm-5.291-5.696a.497.497 0 0 0 .427-.775 24.26 24.26 0 0 1-1.944-3.442.504.504 0 0 0-.671-.251.494.494 0 0 0-.255.664 25.744 25.744 0 0 0 2.015 3.582.534.534 0 0 0 .428.222Zm-3.704-11.784a.505.505 0 0 0-.56-.443.5.5 0 0 0-.448.553c.082.705.295 2.174.835 4.025a.5.5 0 0 0 .488.363h.143a.508.508 0 0 0 .345-.624c-.518-1.791-.732-3.19-.803-3.864v-.01Z"/>
    <path fill="#26324F" d="M85.176 280.379h.112a.51.51 0 0 0 .499-.382.5.5 0 0 0-.377-.604c-.203-.05-.397-.1-.6-.151-.061.322-.132.654-.204.986.194.051.377.101.57.141v.01Zm24.239 2.928a145.99 145.99 0 0 1-4.04-.413c-.264-.02-.529.171-.559.443a.506.506 0 0 0 .447.553c1.364.161 2.717.302 4.06.423h.051-.01a.515.515 0 0 0 .509-.463.498.498 0 0 0-.458-.543Zm16.221.715h-.57c-1.15.01-2.31-.01-3.49-.031a.508.508 0 0 0-.519.494.5.5 0 0 0 .498.513c1.14.02 2.269.03 3.379.03h.702a.5.5 0 0 0 .509-.503.5.5 0 0 0-.509-.503Zm-8.111-.161c-1.333-.05-2.686-.131-4.05-.221a.493.493 0 0 0-.539.462.5.5 0 0 0 .468.534c1.374.09 2.737.161 4.081.221h.02a.488.488 0 0 0 .509-.473.508.508 0 0 0-.489-.523Zm-24.157-2.769a135.917 135.917 0 0 1-3.979-.795.507.507 0 0 0-.6.383.496.496 0 0 0 .386.593c1.313.272 2.646.544 4 .795h.091v.02a.504.504 0 0 0 .509-.412.503.503 0 0 0-.407-.584Zm40.388 2.719c-1.333.06-2.686.111-4.06.151a.501.501 0 0 0-.499.513c.01.282.234.493.509.493h.02c1.384-.04 2.738-.09 4.081-.161a.499.499 0 0 0 .478-.523c0-.272-.214-.513-.529-.473Zm16.718-1.137c-.041-.272-.305-.453-.58-.423-1.302.181-2.646.363-4.019.524a.514.514 0 0 0-.448.563.521.521 0 0 0 .509.443h.061c1.384-.171 2.737-.342 4.05-.533a.51.51 0 0 0 .427-.574Zm-8.639.533c-1.322.13-2.666.241-4.039.342a.507.507 0 0 0-.468.543c.02.262.244.463.508.463h.031c1.384-.101 2.737-.211 4.07-.342a.502.502 0 0 0 .458-.554.517.517 0 0 0-.56-.452Zm-40.479-.816a149.402 149.402 0 0 1-4.009-.604.505.505 0 0 0-.58.413.495.495 0 0 0 .417.574c1.333.221 2.676.422 4.04.613h.071a.51.51 0 0 0 .499-.432.515.515 0 0 0-.438-.564Z"/>
    <path fill="#42587A" d="M71.001 357.662a.5.5 0 0 1-.508-.503.5.5 0 0 1 .508-.503h2.666c.835-22.753 6.625-54.833 10.41-73.782a199.564 199.564 0 0 1-7.245-1.812 599.71 599.71 0 0 0-5.77 40.031 600.627 600.627 0 0 0-3.052 39.749c1.842.101 3.704.191 5.566.282 0-1.117.03-2.274.061-3.452h-2.625l-.01-.01Z"/>
    <path fill="#fff" d="M76.822 281.053Z"/>
    <path fill="#26324F" d="M78.705 271v.02a630.87 630.87 0 0 0-1.76 9.379c-.041.221-.082.443-.123.654 2.3.634 4.732 1.238 7.245 1.811.184-.905.357-1.791.53-2.636-1.14-.282-2.28-.564-3.389-.845a.501.501 0 0 1-.366-.614.508.508 0 0 1 .62-.363c1.09.282 2.209.564 3.338.836.468-2.275.885-4.297 1.242-5.998.02-.08.03-.151.05-.231A144.656 144.656 0 0 1 78.695 271h.01Z"/>
    <path fill="#6F88AD" d="M70.493 357.159c0 .282.224.504.508.504h2.626l.03-1.007h-2.666a.501.501 0 0 0-.509.503h.01Z"/>
    <path fill="#384A6D" d="M80.852 278.779a.5.5 0 0 0 .366.614c1.11.282 2.239.564 3.388.845.072-.332.133-.664.204-.986-1.13-.272-2.249-.553-3.338-.835a.506.506 0 0 0-.62.362Z"/>
  </g>
  <defs>
    <clipPath id="a">
      <path fill="#fff" d="M68 271h99v91H68z"/>
    </clipPath>
  </defs>
</svg>
