<svg xmlns="http://www.w3.org/2000/svg" width="251" height="416" fill="none" viewBox="0 0 251 416">
  <path fill="#EDD9C0" d="M88.071 354.864s21.861-3.528 21.869-3.565c-.013.087-2.179 18.374-2.183 18.618-.53.318-29.981 2.279-33.041-1.291-3.15-1.361-4.4-4.368-4.685-7.156l.025-.182c.013-.078.025-.157.041-.236.526-2.858 2.407-5.513 5.223-7.267.144-.091.289-.178.442-.265.033-3.735 11.631 1.555 12.305 1.344h.004Zm48.405.332s23.485-2.891 24.54-2.891c.231 6.804.029 16.884.024 17.141-.55.331-21.641-1.522-25.255-.298-6.268 2.809-12.702 1.981-15.877-1.729-.674-.786-1.712-2.416-2.01-5.315.009-.062.046-.182.058-.244.013-.083 0-.377.013-.459.546-2.97 2.357-5.498 5.28-7.322.153-.095.306-.186.463-.277.033-3.876 12.073 1.613 12.772 1.394h-.008Z"/>
  <path fill="#EDD9C0" d="M73.946 359.249s-.628-1.373.447-2.564.934-2.896.934-2.896-.347-2.647-.194-3.176c.153-.534 2.638-2.511 5.789-2.064 3.7-.062 7.161 2.031 7.111 3.606-.05 1.576.046 2.714.046 2.714s0 3.938-1.989 5.965c-1.989 2.026-10.978 3.544-12.14-1.58m48.161.004s-1.013-1.465.327-2.95c1.335-1.489.955-3.387.955-3.387s-.769-2.933-.624-3.554c.149-.62 3.121-3.114 7.69-3.11 5.003-.079 10.023 2.147 10.13 3.929.112 1.783.364 2.222.364 2.222s.439 4.438-2.055 6.99c-2.493 2.552-14.624 5.481-16.783-.136"/>
  <path fill="#F6E8DA" d="M76.013 361.929c.6-2.051 1.24-4.091 1.89-6.126a1.373 1.373 0 0 1-.07-.426v-6.552c-1.576.509-2.63 1.444-2.725 1.779-.153.533.194 3.177.194 3.177s.14 1.704-.935 2.895c-1.075 1.191-.446 2.565-.446 2.565.29 1.274 1.063 2.134 2.084 2.68l.008.008Zm50.044-14.853c-1.323.529-2.58 1.046-3.287 1.443a.927.927 0 0 0-.434 1.047 320.657 320.657 0 0 1 1.087 4.401s-.157.881-1.005 2.337c-1.335 1.489-.326 2.949-.326 2.949h.004c.798 2.072 2.952 2.978 5.479 3.173l-1.518-15.359v.009Z"/>
  <path fill="#E4C5AE" d="M75.729 359.431s-2.696-.513-.939-2.308c1.753-1.795-.215-1.956.426-2.105 4.2-.968 11.114 3.301 11.114 3.301l.955 1.315-3.713 2.027-6.318.302-1.521-2.532h-.004Z"/>
  <path fill="#D3C1A1" d="m76.014 348.545.008-.009c.051-.042.021-.017-.008.009Z"/>
  <path fill="#E4C5AE" d="M122.815 355.46c.682-.033 8.294-.807 8.294-.807l6.169 4.691-5.47 2.908-9.626-1.249s-.049-5.51.637-5.543h-.004Z"/>
  <path fill="#0779B9" d="M134.428 359.982s3.635-1.812 3.647-5.257c.004-1.82-.19-1.928.273-2.553.976-1.303 6.173.972 6.107 1.907-.062.935-1.36 7.971-6.181 9.741-3.531 1.713-9.481 1.978-13.86.737-4.383-1.241-5.516-4.037-4.945-6.548.244-1.092 3.076-3.351 3.949-4.037-.042.198-.286 1.712-.592 3.226-1.058 1.481 4.896 5.394 11.611 2.784h-.009Z"/>
  <path fill="#184967" d="M139.816 361.664c1.286-.777 1.757-2.064 1.054-2.883-.703-.814-2.315-.848-3.601-.07s-1.757 2.068-1.054 2.883c.703.815 2.315.848 3.601.07Zm-17.819-3.804c.302-.426.231-.923-.166-1.109-.397-.186-.963.009-1.273.435-.302.426-.232.922.165 1.108.397.186.964-.008 1.274-.434Z"/>
  <path fill="#fff" d="M122.158 357.343c.045-.067.099-.129.149-.187.053-.066.115-.132.169-.194.033-.037.281-.298.137-.153.487-.476 1.025-.881 1.662-1.162a4.047 4.047 0 0 1 1.009-.306c.128-.025.26-.038.388-.054-.273.029.145-.008.215-.008.637-.021 1.274.029 1.894.111.079.009.157.021.24.029-.05-.008-.174-.029.062.013.161.029.326.053.484.091a21.597 21.597 0 0 1 3.245.91c1.261.459 2.518 1.067 3.606 1.853.083.062.157.116.306.235a6.346 6.346 0 0 1 .69.662c.033.033.273.344.162.195.082.12.165.244.231.368.033.062.186.418.112.215.045.128.074.252.103.381a.62.62 0 0 1 .017.157c-.025-.166-.004-.058 0 .049-.013.53.397 1.001 1.029 1.022.575.021 1.208-.409 1.224-.943.066-2.887-3.299-4.699-5.908-5.762a21.478 21.478 0 0 0-4.76-1.336c-1.542-.244-2.501-.195-4.035.31-1.439.476-2.588 1.444-3.415 2.594-.823 1.15.198 2.006.975.91h.009Z"/>
  <path fill="#D3C1A1" d="m125.52 350.166.008-.008c.058-.033.02-.012-.008.008Zm-3.686 5.286c-.07-.037-.049-.041 0 0Zm3.334-5.58.008-.008c.062-.037.021-.012-.008.008Z"/>
  <path fill="#F6E8DA" d="M75.323 353.789s-1.538 2.73-2.324 4.323c-.785 1.592.195 7.669 2.324 10.841 0 0-4.064-1.332-5.119-5.7 0 0-1.976-4.686 5.119-9.468v.004Z"/>
  <path fill="#0779B9" d="M87.136 353.053c-.281.074-.563.149-.65.426-.198.641-.256 1.671-.363 2.941-.265 3.106-3.093 4.413-3.093 4.413-5.173 1.754-8.22-1.741-8.108-3.507.062-.968.62-3.417.4-3.645 0 .038-.007.075 0 .112.03.517-2.286 2.602-2.641 4.079-.26 1.071-.488 4.881 2.67 6.394 3.16 1.51 7.05 1.109 9.796-.12 2.745-1.228 6.442-5.724 6.678-9.914.095-.687-3.47-1.502-4.69-1.175v-.004Z"/>
  <path fill="#184967" d="M87.673 361.545c.798-.604 1.058-1.605.579-2.238-.48-.629-1.51-.654-2.308-.05-.798.604-1.058 1.605-.579 2.238.48.629 1.51.653 2.308.05Zm-13.049-4.004c.186-.484.128-1.038-.128-1.241-.257-.202-.62.021-.807.505-.186.484-.128 1.038.128 1.241.26.203.62-.021.807-.505Z"/>
  <path fill="#fff" d="M74.744 357.248c.033-.054.07-.108.103-.162l.116-.165c.025-.033.203-.252.095-.128.347-.401.736-.737 1.2-.972a2.782 2.782 0 0 1 1.025-.294c-.195.021.103 0 .16-.008.472-.009.94.037 1.407.111.062.009.115.021.173.029-.037-.008-.128-.024.046.009.124.02.24.049.36.078a15.667 15.667 0 0 1 2.419.794c.946.402 1.889.923 2.724 1.601a6.12 6.12 0 0 1 .53.501c.082.091.16.178.235.273.025.033.21.293.128.169.062.104.128.207.182.319.03.054.149.36.091.182.033.107.062.215.087.322.008.046.016.091.02.129-.02-.145 0-.05 0 .041.009.451.319.848.79.873.426.02.881-.339.873-.79-.033-2.449-2.576-4.013-4.536-4.935a14.945 14.945 0 0 0-3.556-1.175c-1.15-.219-1.86-.182-2.977.232-1.05.389-1.873 1.204-2.448 2.172-.574.967.203 1.704.753.781v.013Z"/>
  <path fill="#F6E8DA" d="M123.248 354.079s-3.241 2.561-3.523 4.786c-.277 2.225.563 7.478 8.034 11.76 0 0-6.748.653-9.051-5.382 0 0-1.865-3.47.025-6.597 1.89-3.127 3.076-3.773 4.511-4.563l.004-.004Z"/>
  <path fill="#E4C5AE" d="m109.943 351.299-2.183 18.618H95.385s10.283-2.387 14.558-18.618Zm51.073 1.006.112 8.409.12 9.344-12.686-.141s9.242-1.7 12.454-17.612Z"/>
  <path fill="#fff" d="M108.02 368.627H74.19a.608.608 0 0 0-.608.608v4.078c0 .336.272.609.608.609h33.83a.609.609 0 0 0 .608-.609v-4.078a.608.608 0 0 0-.608-.608Zm53.112 0h-40.174a.661.661 0 0 0-.661.662v3.971c0 .365.296.662.661.662h40.174a.662.662 0 0 0 .661-.662v-3.971a.661.661 0 0 0-.661-.662Z"/>
</svg>
