<svg xmlns="http://www.w3.org/2000/svg" width="250" height="414" fill="none" viewBox="0 0 250 414">
  <g clip-path="url(#a)">
    <path fill="#AA4721" d="M119.962 255.868a.988.988 0 0 1-.388-.075 1.061 1.061 0 0 1-.614-1.382l4.557-11.767a1.07 1.07 0 0 1 1.39-.611c.56.214.829.836.614 1.382l-4.557 11.767a1.066 1.066 0 0 1-1.002.686Zm8.564 1.897h-.129a1.071 1.071 0 0 1-.937-1.189l1.53-12.518a1.082 1.082 0 0 1 1.196-.932c.592.075 1.012.611.937 1.189l-1.53 12.518a1.07 1.07 0 0 1-1.067.943v-.011Zm7.779.879a1.07 1.07 0 0 1-1.077-1.072l-.065-12.614a1.07 1.07 0 0 1 1.077-1.071 1.07 1.07 0 0 1 1.078 1.071l.064 12.614a1.07 1.07 0 0 1-1.077 1.072Zm2.705-28.314c-3.588.568-7.272.944-10.731.954l9.675-1.371c.409-.065.808.096 1.056.385.021.011.032.022.032.032h-.032Z"/>
    <path fill="#AA4721" d="M139.753 247.755a.74.74 0 0 1-.226.536.704.704 0 0 1-.442.172c-2.489.075-5.301 0-8.36-.322a62.13 62.13 0 0 1-9.858-1.833.695.695 0 0 1-.42-1.007l7.832-14.018s4.73 3.055 10.903 5.198l.291.096c.097 3.73.183 7.449.28 11.178Zm25.457-55.009s.323-1.168.237-2.722c5.807-1.404 11.075-3.033 14.566-4.844a210.467 210.467 0 0 1-14.803 7.566Z"/>
    <path fill="#F47236" d="M141.714 268.001a1.078 1.078 0 0 1-1.077-1.04l-.388-12.603a1.076 1.076 0 0 1 1.045-1.104h.032c.582 0 1.056.461 1.077 1.039l.388 12.604a1.078 1.078 0 0 1-1.045 1.104h-.032Zm7.982-1.608a1.07 1.07 0 0 1-1.055-.869l-2.403-12.388a1.065 1.065 0 0 1 .851-1.254 1.063 1.063 0 0 1 1.261.846l2.402 12.389a1.064 1.064 0 0 1-.851 1.254c-.065.011-.14.022-.205.022Z"/>
    <path fill="#D3673C" d="M102.391 207.771c3.124.418 7.886.814 12.734.364a37.558 37.558 0 0 0 1.605-.225c.377-.053.754-.107 1.131-.171-1.174-.45-14.07-5.562-20.297-11.103h-.043c-1.8-.097-3.48-.236-5.01-.429-11.43-1.382-15.19-3.129-15.416-3.236l.108.107c0 .011.032.032.043.032a.94.94 0 0 0 .097.107c.14.129.28.257.42.407.075.065.161.14.237.215 0 .021.032.032.043.053.452.418.883.815 1.325 1.211.323.29.636.579.97.858.506.461 1.023.889 1.519 1.307a61.476 61.476 0 0 0 7.185 5.23c.334.204.647.407.97.59a55.9 55.9 0 0 0 1.68.964c.432.236.852.461 1.272.675.42.215.83.418 1.239.6.69.322 1.336.622 1.993.879.172.065.345.14.517.215.711.278 1.39.535 2.058.76h.01s.022 0 .054.011a.934.934 0 0 0 .162.032c.097.011.237.043.41.065.107.021.237.043.377.064a46.57 46.57 0 0 0 2.607.396v.022Z"/>
    <path fill="#F47236" d="M157.152 264.506c-.474 0-.905-.31-1.034-.793l-3.34-12.163a1.076 1.076 0 0 1 .754-1.319 1.09 1.09 0 0 1 1.325.751l3.34 12.163a1.075 1.075 0 0 1-.754 1.319 1.398 1.398 0 0 1-.28.042h-.011Zm8.576-3.376a1.07 1.07 0 0 1-.981-.633l-5.225-11.488c-.248-.536 0-1.179.539-1.415.539-.247 1.185 0 1.422.536l5.225 11.488c.248.536 0 1.179-.539 1.415-.14.064-.291.097-.441.097Zm5.343-2.7a1.09 1.09 0 0 1-.959-.579l-5.871-11.178a1.076 1.076 0 0 1 1.907-.996l5.871 11.177c.27.526.076 1.169-.452 1.447a1.05 1.05 0 0 1-.496.118v.011Z"/>
    <path fill="#824131" d="M102.39 207.77c3.124.418 7.886.815 12.734.365a96.909 96.909 0 0 1-4.018.45c-.345.042-.7.075-1.045.107 0 0-1.422.278-3.986.053h-.097a28.548 28.548 0 0 1-3.652-.589c-1.067-.225-2.231-.557-3.491-.965a1 1 0 0 0 .162.033c.097.01.237.042.409.064.108.021.237.043.377.064.625.118 1.519.257 2.607.397v.021Z"/>
    <path fill="#C45D39" d="M160.664 224.906s-10.374 3.644-21.622 5.423h-.032v-.032l-.043-1.49 20.706-7.266.991 3.365Z"/>
    <path fill="#F47236" d="M166.244 247.23c-7.013 4.244-20.264 7.866-24.865 9.045a1.33 1.33 0 0 1-1.659-1.243l-.194-6.741-.344-11.811.291.097c2.822.964 5.925 1.725 9.017 1.918 9.987.611 15.815-1.243 15.815-1.243l2.5 8.488a1.294 1.294 0 0 1-.561 1.49Z"/>
    <path fill="#D3673C" d="M188.341 211.896a177.585 177.585 0 0 1-24.79 11.832c-8.791 3.376-16.408 6.227-26.987 7.223-4.428.418-8.791.44-13.209.118 34.325-10.224 41.284-36.02 41.812-38.174.022-.096.032-.15.032-.15 4.935-2.529 9.88-5.048 14.814-7.577.862-.386 1.724-.782 2.585-1.168.237.343 1.045 1.608.787 3.237a4.196 4.196 0 0 1-.679 1.714s-3.361 3.644-6.011 4.962c0 0 5.666.247 6.83.708.032 0 .065.032.097.042 9.265 4.684 1.713 11.414 1.713 11.414 1.573-.686 3.383-.107 4.212 1.265.916 1.5.41 3.579-1.206 4.544v.01Z"/>
    <path fill="#F47236" d="M165.21 192.745s-6.011 27.65-41.844 38.335h-.011c-.894-.075-2.747-.225-5.063-.493-27.537-3.194-47.899-13.771-50.732-21.981-.259-.75-.97-2.807-.237-5.058 1.034-3.204 4.299-4.748 5.602-5.283-2.726-4.78-.83-7.535-.83-7.535 2.306 1.426 5 2.24 5 2.24 2.747 2.519 9.879 8.799 18.26 12.732 5.085 2.39 8.468 2.894 10.623 3.044 1.821.128 3.253 0 5.505-.182 4.536-.376 7.994-1.083 10.892-1.704 7.003-1.501 10.515-2.251 15.137-3.58 10.515-3.011 18.325-6.409 23.453-8.638a164.48 164.48 0 0 0 4.234-1.907l.011.01Z"/>
    <path fill="#D3673C" d="M102.39 207.77c2.306.289 4.848.482 7.596.493 2.434 0 4.686-.128 6.733-.354.399-.042.776-.075 1.153-.128h.054c.926.439 2.197.986 3.727 1.468.711.225 1.476.45 2.306.632 10.008 2.294 18.929-1.286 19.133-.578.087.31-1.594 1.189-3.835 1.972-1.81.643-7.703 2.518-18.843 1.232-.711-.086-1.454-.182-2.208-.289a81.212 81.212 0 0 1-8.166-1.619 95.017 95.017 0 0 1-7.79-2.175c-.711-.236-1.368-.472-1.993-.686 0 0-.021 0-.021-.011a30.636 30.636 0 0 1-1.476-.536l3.62.579h.01Z"/>
    <path fill="#AA4721" d="M185.809 206.013a106.454 106.454 0 0 1-10.871 6.441c-12.12 6.238-22.721 8.703-22.613 9.056.065.225 4.536-.868 7.843-1.79 6.809-1.896 11.915-3.922 14.049-4.801a124.35 124.35 0 0 0 15.33-7.566 2.851 2.851 0 0 0-.786-.943c-1.207-.911-2.748-.461-2.952-.397Z"/>
    <path fill="#D3673C" d="M71.966 196.195s.485 1.147.948 2.069c0 0-.55.289-1.174.632-1.077.589-1.616.89-1.68 1.007-.604.954 6.054 8.52 17.312 13.579 11.722 5.262 23.292 5.208 23.368 4.812.032-.225-3.362-.482-9.255-2.304-5.537-1.715-16.73-5.327-25.64-14.972a46.322 46.322 0 0 1-3.879-4.823Zm91.682 1.191c-3.889 5.755-7.961 9.506-10.762 11.756-11.636 9.356-24.672 11.553-29.692 12.336-6.636 1.039-14.059 1.178-14.038 1.618 0 .225 1.94.332 2.543.364 6.442.343 43.751-.857 50.872-20.909.366-1.05.894-2.808 1.077-5.176v.011Z"/>
    <path fill="#93381C" d="M139.182 236.482c-6.173-2.144-10.903-5.198-10.903-5.198 3.459-.011 7.143-.386 10.731-.954l.172 6.152Z"/>
    <path fill="#AA4721" d="M164.306 237.252s-5.829 1.854-15.816 1.243c-3.092-.192-6.194-.953-9.017-1.918l-.291-.096-.172-6.152h.032c11.248-1.779 21.622-5.423 21.622-5.423l3.642 12.346Zm19.22-42.621c-1.164-.461-6.831-.707-6.831-.707 2.651-1.318 6.012-4.951 6.012-4.951-.905 3.44-2.963 4.179-2.963 4.179 1.487.461 2.737.954 3.782 1.479Z"/>
  </g>
  <defs>
    <clipPath id="a">
      <path fill="#fff" d="M67 184h123v84H67z"/>
    </clipPath>
  </defs>
</svg>
